<svg xmlns="http://www.w3.org/2000/svg" xmlns:xlink="http://www.w3.org/1999/xlink" width="1080" zoomAndPan="magnify" viewBox="0 0 810 1012.49997" height="1350" preserveAspectRatio="xMidYMid meet" version="1.2"><defs><clipPath id="02ea256f5b"><path d="M 222.375 323.375 L 587.441406 323.375 L 587.441406 688.445312 L 222.375 688.445312 Z M 222.375 323.375 "/></clipPath></defs><g id="732a79b5df"><g clip-rule="nonzero" clip-path="url(#02ea256f5b)"><path style=" stroke:none;fill-rule:nonzero;fill:#ffffff;fill-opacity:1;" d="M 404.910156 323.375 C 304.226562 323.375 222.375 405.226562 222.375 505.910156 L 222.375 688.445312 L 404.910156 688.445312 C 505.589844 688.445312 587.441406 606.589844 587.441406 505.910156 C 587.441406 405.226562 505.589844 323.375 404.910156 323.375 Z M 404.910156 659.621094 L 251.195312 659.621094 L 251.195312 505.910156 C 251.195312 501.296875 251.578125 496.6875 251.964844 492.074219 C 255.039062 456.335938 283.476562 427.128906 319.597656 424.824219 C 320.75 424.824219 322.289062 424.824219 323.824219 424.824219 C 363.789062 424.824219 396.070312 455.566406 397.605469 495.53125 C 398.375 512.058594 393.765625 527.042969 385.308594 539.726562 C 394.53125 545.105469 401.449219 552.40625 405.292969 560.859375 C 409.519531 552.40625 416.4375 545.105469 425.277344 539.726562 C 416.820312 527.042969 412.59375 512.058594 412.976562 495.53125 C 414.898438 455.566406 446.796875 424.824219 486.761719 424.824219 C 488.296875 424.824219 489.449219 424.824219 490.988281 424.824219 C 526.726562 426.746094 555.164062 455.953125 558.621094 492.074219 C 559.007812 496.6875 559.390625 501.296875 559.390625 505.910156 C 558.621094 590.449219 489.449219 659.621094 404.910156 659.621094 Z M 404.910156 659.621094 "/></g><path style=" stroke:none;fill-rule:nonzero;fill:#ffffff;fill-opacity:1;" d="M 371.089844 501.679688 C 371.089844 502.460938 371.054688 503.238281 370.976562 504.015625 C 370.898438 504.792969 370.785156 505.5625 370.632812 506.328125 C 370.480469 507.09375 370.292969 507.851562 370.066406 508.597656 C 369.839844 509.34375 369.578125 510.078125 369.277344 510.796875 C 368.980469 511.519531 368.644531 512.222656 368.277344 512.914062 C 367.910156 513.601562 367.507812 514.269531 367.078125 514.917969 C 366.644531 515.566406 366.179688 516.191406 365.683594 516.796875 C 365.1875 517.398438 364.664062 517.976562 364.113281 518.527344 C 363.5625 519.082031 362.984375 519.605469 362.378906 520.097656 C 361.777344 520.59375 361.152344 521.058594 360.503906 521.492188 C 359.855469 521.925781 359.183594 522.324219 358.496094 522.695312 C 357.808594 523.0625 357.105469 523.394531 356.382812 523.691406 C 355.664062 523.992188 354.929688 524.253906 354.183594 524.480469 C 353.433594 524.707031 352.679688 524.898438 351.914062 525.050781 C 351.148438 525.203125 350.378906 525.316406 349.601562 525.390625 C 348.824219 525.46875 348.046875 525.507812 347.265625 525.507812 C 346.484375 525.507812 345.707031 525.46875 344.929688 525.390625 C 344.152344 525.316406 343.382812 525.203125 342.617188 525.050781 C 341.851562 524.898438 341.097656 524.707031 340.351562 524.480469 C 339.601562 524.253906 338.871094 523.992188 338.148438 523.691406 C 337.425781 523.394531 336.722656 523.0625 336.035156 522.695312 C 335.347656 522.324219 334.679688 521.925781 334.027344 521.492188 C 333.378906 521.058594 332.753906 520.59375 332.152344 520.097656 C 331.546875 519.605469 330.96875 519.082031 330.417969 518.527344 C 329.867188 517.976562 329.34375 517.398438 328.847656 516.796875 C 328.351562 516.191406 327.890625 515.566406 327.457031 514.917969 C 327.023438 514.269531 326.621094 513.601562 326.253906 512.914062 C 325.886719 512.222656 325.550781 511.519531 325.253906 510.796875 C 324.957031 510.078125 324.691406 509.34375 324.464844 508.597656 C 324.238281 507.851562 324.050781 507.09375 323.898438 506.328125 C 323.746094 505.5625 323.632812 504.792969 323.554688 504.015625 C 323.480469 503.238281 323.441406 502.460938 323.441406 501.679688 C 323.441406 500.902344 323.480469 500.121094 323.554688 499.347656 C 323.632812 498.570312 323.746094 497.796875 323.898438 497.03125 C 324.050781 496.269531 324.238281 495.511719 324.464844 494.765625 C 324.691406 494.019531 324.957031 493.285156 325.253906 492.5625 C 325.550781 491.84375 325.886719 491.136719 326.253906 490.449219 C 326.621094 489.761719 327.023438 489.09375 327.457031 488.445312 C 327.890625 487.796875 328.351562 487.167969 328.847656 486.566406 C 329.34375 485.964844 329.867188 485.386719 330.417969 484.835938 C 330.96875 484.28125 331.546875 483.757812 332.152344 483.265625 C 332.753906 482.769531 333.378906 482.304688 334.027344 481.871094 C 334.679688 481.4375 335.347656 481.035156 336.035156 480.667969 C 336.722656 480.300781 337.425781 479.96875 338.148438 479.667969 C 338.871094 479.371094 339.601562 479.109375 340.351562 478.882812 C 341.097656 478.65625 341.851562 478.464844 342.617188 478.3125 C 343.382812 478.160156 344.152344 478.046875 344.929688 477.96875 C 345.707031 477.894531 346.484375 477.855469 347.265625 477.855469 C 348.046875 477.855469 348.824219 477.894531 349.601562 477.96875 C 350.378906 478.046875 351.148438 478.160156 351.914062 478.3125 C 352.679688 478.464844 353.433594 478.65625 354.183594 478.882812 C 354.929688 479.109375 355.664062 479.371094 356.382812 479.667969 C 357.105469 479.96875 357.808594 480.300781 358.496094 480.667969 C 359.183594 481.035156 359.855469 481.4375 360.503906 481.871094 C 361.152344 482.304688 361.777344 482.769531 362.378906 483.265625 C 362.984375 483.757812 363.5625 484.28125 364.113281 484.835938 C 364.664062 485.386719 365.1875 485.964844 365.683594 486.566406 C 366.179688 487.167969 366.644531 487.796875 367.078125 488.445312 C 367.507812 489.09375 367.910156 489.761719 368.277344 490.449219 C 368.644531 491.136719 368.980469 491.84375 369.277344 492.5625 C 369.578125 493.285156 369.839844 494.019531 370.066406 494.765625 C 370.292969 495.511719 370.480469 496.269531 370.632812 497.03125 C 370.785156 497.796875 370.898438 498.570312 370.976562 499.347656 C 371.054688 500.121094 371.089844 500.902344 371.089844 501.679688 Z M 371.089844 501.679688 "/><path style=" stroke:none;fill-rule:nonzero;fill:#ffffff;fill-opacity:1;" d="M 486.375 501.679688 C 486.375 502.460938 486.339844 503.238281 486.261719 504.015625 C 486.183594 504.792969 486.070312 505.5625 485.917969 506.328125 C 485.765625 507.09375 485.578125 507.851562 485.351562 508.597656 C 485.125 509.34375 484.863281 510.078125 484.5625 510.796875 C 484.265625 511.519531 483.929688 512.222656 483.5625 512.914062 C 483.195312 513.601562 482.792969 514.269531 482.363281 514.917969 C 481.929688 515.566406 481.464844 516.191406 480.96875 516.796875 C 480.472656 517.398438 479.949219 517.976562 479.398438 518.527344 C 478.847656 519.082031 478.269531 519.605469 477.664062 520.097656 C 477.0625 520.59375 476.4375 521.058594 475.789062 521.492188 C 475.140625 521.925781 474.46875 522.324219 473.78125 522.695312 C 473.09375 523.0625 472.390625 523.394531 471.667969 523.691406 C 470.949219 523.992188 470.214844 524.253906 469.46875 524.480469 C 468.71875 524.707031 467.964844 524.898438 467.199219 525.050781 C 466.433594 525.203125 465.664062 525.316406 464.886719 525.390625 C 464.109375 525.46875 463.332031 525.507812 462.550781 525.507812 C 461.769531 525.507812 460.992188 525.46875 460.214844 525.390625 C 459.4375 525.316406 458.667969 525.203125 457.902344 525.050781 C 457.136719 524.898438 456.382812 524.707031 455.636719 524.480469 C 454.886719 524.253906 454.15625 523.992188 453.433594 523.691406 C 452.710938 523.394531 452.007812 523.0625 451.320312 522.695312 C 450.632812 522.324219 449.964844 521.925781 449.3125 521.492188 C 448.664062 521.058594 448.039062 520.59375 447.4375 520.097656 C 446.832031 519.605469 446.253906 519.082031 445.703125 518.527344 C 445.152344 517.976562 444.628906 517.398438 444.132812 516.796875 C 443.636719 516.191406 443.175781 515.566406 442.742188 514.917969 C 442.308594 514.269531 441.90625 513.601562 441.539062 512.914062 C 441.171875 512.222656 440.835938 511.519531 440.539062 510.796875 C 440.242188 510.078125 439.976562 509.34375 439.75 508.597656 C 439.523438 507.851562 439.335938 507.09375 439.183594 506.328125 C 439.03125 505.5625 438.917969 504.792969 438.839844 504.015625 C 438.765625 503.238281 438.726562 502.460938 438.726562 501.679688 C 438.726562 500.902344 438.765625 500.121094 438.839844 499.347656 C 438.917969 498.570312 439.03125 497.796875 439.183594 497.03125 C 439.335938 496.269531 439.523438 495.511719 439.75 494.765625 C 439.976562 494.019531 440.242188 493.285156 440.539062 492.5625 C 440.835938 491.84375 441.171875 491.136719 441.539062 490.449219 C 441.90625 489.761719 442.308594 489.09375 442.742188 488.445312 C 443.175781 487.796875 443.636719 487.167969 444.132812 486.566406 C 444.628906 485.964844 445.152344 485.386719 445.703125 484.835938 C 446.253906 484.28125 446.832031 483.757812 447.4375 483.265625 C 448.039062 482.769531 448.664062 482.304688 449.3125 481.871094 C 449.964844 481.4375 450.632812 481.035156 451.320312 480.667969 C 452.007812 480.300781 452.710938 479.96875 453.433594 479.667969 C 454.15625 479.371094 454.886719 479.109375 455.636719 478.882812 C 456.382812 478.65625 457.136719 478.464844 457.902344 478.3125 C 458.667969 478.160156 459.4375 478.046875 460.214844 477.96875 C 460.992188 477.894531 461.769531 477.855469 462.550781 477.855469 C 463.332031 477.855469 464.109375 477.894531 464.886719 477.96875 C 465.664062 478.046875 466.433594 478.160156 467.199219 478.3125 C 467.964844 478.464844 468.71875 478.65625 469.46875 478.882812 C 470.214844 479.109375 470.949219 479.371094 471.667969 479.667969 C 472.390625 479.96875 473.09375 480.300781 473.78125 480.667969 C 474.46875 481.035156 475.140625 481.4375 475.789062 481.871094 C 476.4375 482.304688 477.0625 482.769531 477.664062 483.265625 C 478.269531 483.757812 478.847656 484.28125 479.398438 484.835938 C 479.949219 485.386719 480.472656 485.964844 480.96875 486.566406 C 481.464844 487.167969 481.929688 487.796875 482.363281 488.445312 C 482.792969 489.09375 483.195312 489.761719 483.5625 490.449219 C 483.929688 491.136719 484.265625 491.84375 484.5625 492.5625 C 484.863281 493.285156 485.125 494.019531 485.351562 494.765625 C 485.578125 495.511719 485.765625 496.269531 485.917969 497.03125 C 486.070312 497.796875 486.183594 498.570312 486.261719 499.347656 C 486.339844 500.121094 486.375 500.902344 486.375 501.679688 Z M 486.375 501.679688 "/></g></svg>